<svg width="78" height="78" viewBox="0 0 78 78" fill="none" xmlns="http://www.w3.org/2000/svg">
<g clip-path="url(#clip0_6_107)">
<mask id="mask0_6_107" style="mask-type:luminance" maskUnits="userSpaceOnUse" x="0" y="0" width="78" height="78">
<path d="M78 0H0V78H78V0Z" fill="white"/>
<path d="M0.5 77.5V0.5H77.5V77.5H0.5Z" stroke="white"/>
</mask>
<g mask="url(#mask0_6_107)">
<path fill-rule="evenodd" clip-rule="evenodd" d="M38.9999 1C59.9867 1 77 18.0132 77 38.9999C77 59.9867 59.9867 77 38.9999 77C18.0132 77 1 59.9867 1 38.9999C1 18.0132 18.0132 1 38.9999 1Z" fill="#272729" stroke="#755DDB"/>
</g>
<path d="M19.1242 33.2795L39.2514 46.0392C39.2578 46.0437 39.2655 46.0462 39.2733 46.0462C39.2811 46.0462 39.2888 46.0437 39.2953 46.0392L59.8281 32.9906C59.8327 32.9877 59.8367 32.984 59.8398 32.9796C59.8428 32.9753 59.845 32.9703 59.8461 32.9651C59.8471 32.9598 59.8471 32.9544 59.846 32.9491C59.8449 32.9439 59.8428 32.9389 59.8396 32.9345C59.837 32.9296 59.833 32.9256 59.8281 32.9229L39.4839 19.8787C39.4775 19.8741 39.4697 19.8717 39.4619 19.8717C39.4541 19.8717 39.4464 19.8741 39.44 19.8787L19.1242 33.2096C19.1197 33.2131 19.1158 33.2174 19.113 33.2223C19.1102 33.2273 19.1084 33.2328 19.1077 33.2385C19.1071 33.2441 19.1076 33.2499 19.1092 33.2554C19.1109 33.2609 19.1136 33.266 19.1173 33.2703C19.119 33.2738 19.1214 33.2769 19.1242 33.2795ZM39.2516 61C38.9842 61.0002 38.7226 60.9225 38.4983 60.7762L16.943 46.8109C16.9363 46.8032 16.9326 46.7932 16.9326 46.7829C16.9326 46.7727 16.9363 46.7627 16.943 46.7549L17.8608 45.3186C17.8685 45.3118 17.8784 45.3081 17.8886 45.3081C17.8988 45.3081 17.9087 45.3118 17.9164 45.3186L39.2419 59.1369C39.2483 59.1415 39.256 59.1439 39.2638 59.1439C39.2717 59.1439 39.2794 59.1415 39.2858 59.1369L59.4964 46.0718C59.7243 45.9255 59.9118 45.7236 60.0415 45.4849C60.1711 45.2463 60.2388 44.9785 60.2382 44.7066V41.49C60.2373 41.479 60.2322 41.4689 60.224 41.4615C60.2158 41.4542 60.2052 41.4502 60.1943 41.4505C60.1878 41.4509 60.1816 41.4524 60.1757 41.4551L39.7634 54.5341C39.5398 54.6768 39.2806 54.7527 39.0158 54.7527C38.7511 54.7527 38.4917 54.6768 38.2683 54.5341L17.6409 41.3312C17.1385 41.0148 16.7244 40.5752 16.4374 40.0535C16.1503 39.5318 15.9998 38.9452 16 38.3489V33.8486C15.9991 33.4848 16.1394 33.1351 16.391 32.8739L16.46 32.8179L16.8563 32.5451L38.738 18.198L38.761 18.1841C38.981 18.0578 39.2311 17.9943 39.4843 18.0004C39.7376 18.0066 39.9844 18.0822 40.198 18.219L61.3519 31.7761C61.5505 31.9028 61.714 32.078 61.8273 32.2852C61.9406 32.4925 62 32.7253 62 32.9618C62 33.1984 61.9406 33.4311 61.8273 33.6384C61.714 33.8457 61.5505 34.0209 61.3519 34.1475L40.0173 47.7C39.7947 47.8394 39.5378 47.9133 39.2756 47.9133C39.0134 47.9133 38.7565 47.8394 38.5339 47.7L17.838 34.5912C17.8287 34.5857 17.8178 34.5841 17.8074 34.5867C17.797 34.5893 17.788 34.5959 17.7823 34.6051C17.7786 34.6114 17.777 34.6188 17.7777 34.6261V38.3466C17.7766 38.6405 17.8496 38.9299 17.9898 39.1877C18.13 39.4455 18.3329 39.6634 18.5795 39.8209L38.9965 52.8767C39.003 52.8813 39.0106 52.8837 39.0185 52.8837C39.0263 52.8837 39.034 52.8813 39.0404 52.8767L59.8651 39.5108C60.1215 39.3456 60.4246 39.2697 60.728 39.2948C61.0314 39.3199 61.3182 39.4445 61.5442 39.6497C61.6909 39.7901 61.8065 39.9601 61.8836 40.1485C61.9606 40.3369 61.9974 40.5396 61.9916 40.7433V44.691C61.9934 45.2637 61.8515 45.8276 61.5793 46.3306C61.307 46.8336 60.9132 47.2594 60.434 47.5686L39.9938 60.7818C39.7712 60.9214 39.5144 60.9965 39.252 60.9986L39.2516 61Z" fill="white"/>
</g>
<defs>
<clipPath id="clip0_6_107">
<rect width="78" height="78" fill="white"/>
</clipPath>
</defs>
</svg>
